<?xml version="1.0" encoding="utf-8"?>
<svg height="800px" width="800px" version="1.1" id="_x32_" viewBox="0 0 512 512" xmlns="http://www.w3.org/2000/svg">
  <style type="text/css">
	.st0{fill:#000000;}
</style>
  <g>
    <path class="st0" d="M184.025,259.35h26.422c6.953,0,12.609,5.652,12.609,12.605v75.034c0,8.708,7.082,15.792,15.788,15.792h34.314 c8.706,0,15.786-7.084,15.786-15.792v-75.034c0-6.952,5.658-12.605,12.611-12.605h26.422c4.412,0,7.584-1.494,8.93-4.208 c1.347-2.71,0.619-6.141-2.046-9.658l-69.012-90.966c-2.591-3.412-6.089-5.295-9.85-5.295c-3.76,0-7.258,1.883-9.849,5.295 l-69.012,90.966c-2.667,3.517-3.393,6.949-2.046,9.658C176.439,257.856,179.613,259.35,184.025,259.35z" style="fill: rgb(255, 255, 255);"/>
    <path class="st0" d="M 256 0 C 114.842 0 0.002 114.84 0.002 256 C 0.002 397.16 114.842 512 256 512 C 397.158 512 511.998 397.16 511.998 256 C 511.998 114.84 397.158 0 256 0 Z M 256 51.785 C 360.334 51.785 460.216 151.664 460.216 256 C 460.216 360.336 360.334 460.215 256 460.215 C 151.666 460.215 51.783 360.336 51.783 256 C 51.783 151.664 151.667 51.785 256 51.785 Z" style="stroke-width: 0.5px; fill: rgb(255, 255, 255);"/>
  </g>
</svg>